<svg width="1586" height="1024" viewBox="0 0 1586 1024" fill="none" xmlns="http://www.w3.org/2000/svg">
<rect x="112" width="1440" height="1024" fill="#E1EDF1"/>
<path d="M803.834 147.943C803.834 165.679 788.565 191.79 758.027 226.277C721.579 267.66 626.518 394.767 472.844 607.597C474.814 734.704 478.754 821.906 484.665 869.201C487.62 898.761 489.098 919.945 489.098 932.755C489.098 965.27 483.187 987.44 471.366 999.264C460.53 1010.1 441.321 1015.52 413.738 1015.52C393.051 1015.52 373.349 1009.61 354.633 997.786C336.901 984.977 328.035 969.704 328.035 951.969C328.035 880.04 326.558 774.61 323.602 635.679C323.602 629.767 319.662 619.914 311.781 606.12C303.901 592.325 298.975 583.457 297.005 579.516C276.318 543.059 250.213 502.66 218.69 458.321C188.152 412.996 161.555 379.002 138.898 356.34C95.5538 312.985 61.5682 274.065 36.9409 239.579C12.3136 204.107 0 178.981 0 164.201C0 143.509 9.35836 127.252 28.0751 115.428C47.7769 102.618 68.9564 96.2139 91.6134 96.2139C104.42 96.2139 117.718 99.6625 131.51 106.56C146.286 113.457 158.107 123.31 166.973 136.12C225.093 222.828 276.811 294.757 322.125 351.906L391.574 442.063C433.932 398.709 470.873 355.847 502.396 313.478C534.904 270.124 570.368 218.887 608.786 159.767L633.906 121.34C652.623 95.7212 681.683 82.912 721.086 82.912C739.803 82.912 758.027 88.3313 775.759 99.1699C794.476 110.008 803.834 126.266 803.834 147.943Z" fill="white"/>
<path d="M1529.85 814.516C1548.57 814.516 1562.36 821.906 1571.22 836.686C1581.07 850.48 1586 865.753 1586 882.503C1586 903.195 1582.55 917.975 1575.66 926.843C1569.75 934.725 1557.92 943.101 1540.19 951.969C1498.82 971.675 1447.59 987.44 1386.52 999.264C1325.44 1011.09 1259.93 1017 1189.99 1017C1102.32 1017 1037.8 1002.22 996.423 972.66C956.034 943.101 930.915 907.629 921.064 866.245C912.198 823.876 907.765 768.698 907.765 700.711C907.765 627.797 910.72 556.361 916.631 486.403C922.541 415.459 932.885 325.302 947.661 215.931C954.557 168.635 973.273 134.642 1003.81 113.95C1034.35 92.2726 1067.84 81.434 1104.29 81.434C1134.83 81.434 1184.58 80.4487 1253.53 78.4781L1382.09 77C1435.28 77 1473.7 78.478 1497.34 81.434C1526.89 87.3459 1548.57 94.2432 1562.36 102.126C1577.13 109.023 1584.52 121.34 1584.52 139.075C1584.52 158.782 1577.63 177.996 1563.84 196.717C1551.03 215.438 1531.33 224.799 1504.73 224.799C1474.19 224.799 1430.36 222.828 1373.22 218.887C1316.09 214.945 1273.23 212.975 1244.67 212.975C1220.04 212.975 1195.9 214.453 1172.26 217.409C1144.68 219.379 1124.98 222.828 1113.16 227.755C1101.34 232.681 1094.44 241.057 1092.47 252.881C1078.68 354.369 1071.78 429.254 1071.78 477.535C1094.44 480.491 1116.6 481.969 1138.28 481.969C1165.86 481.969 1195.41 480.491 1226.93 477.535C1258.46 474.579 1278.65 472.608 1287.52 471.623C1339.73 466.696 1384.55 464.233 1421.98 464.233C1443.65 464.233 1459.91 468.174 1470.74 476.057C1482.57 483.939 1488.48 494.778 1488.48 508.572C1488.48 530.249 1482.57 547 1470.74 558.824C1459.91 570.648 1440.21 579.516 1411.64 585.428C1377.16 592.325 1334.31 597.744 1283.08 601.686C1232.84 605.627 1183.59 607.597 1135.32 607.597C1118.57 607.597 1095.42 606.612 1065.87 604.641C1062.92 664.746 1061.44 720.417 1061.44 771.654C1061.44 841.612 1107.74 876.591 1200.34 876.591C1249.59 876.591 1290.47 873.143 1322.98 866.245C1355.49 859.348 1392.92 849.495 1435.28 836.686C1474.68 821.906 1506.21 814.516 1529.85 814.516Z" fill="white"/>
</svg>
