<svg width="233" height="217" viewBox="0 0 233 217" fill="none" xmlns="http://www.w3.org/2000/svg">
<path d="M187.424 213.299C187.029 213.164 186.597 213.191 186.221 213.374C185.846 213.557 185.559 213.882 185.424 214.277C185.288 214.672 185.315 215.105 185.498 215.48C185.681 215.855 186.006 216.142 186.401 216.278C187.31 216.523 187.61 216.323 187.941 216.26C188.25 216.17 188.493 216.067 188.728 215.959C189.183 215.747 189.579 215.515 189.958 215.274C190.714 214.793 191.396 214.275 192.056 213.727C193.367 212.634 194.566 211.433 195.657 210.123C195.664 210.114 195.671 210.106 195.678 210.098C201.68 203.144 206.827 195.386 211.626 187.617C213.601 184.42 215.504 181.238 217.398 178.004C217.478 177.866 217.559 177.728 217.64 177.59C222.597 169.091 226.25 159.952 229.204 150.671C229.287 150.412 229.37 150.149 229.45 149.894C232.941 139.911 233.123 128.835 232.96 118.69C232.963 118.335 232.967 117.978 232.973 117.615C232.763 108.213 229.442 99.9168 226.152 91.7331C225.974 91.3091 225.792 90.8801 225.611 90.4608C221.828 81.8404 216.916 73.9603 211.748 66.2751C211.426 65.7995 211.101 65.3253 210.779 64.8575C205.384 56.9249 198.358 50.1126 190.978 44.288C190.463 43.8679 189.955 43.4521 189.459 43.0361C181.072 36.9183 171.895 34.1012 162.836 30.6946C162.111 30.4363 161.374 30.1765 160.652 29.9239C154.832 28.1353 149.292 28.6899 143.815 29.2295C142.974 29.3268 142.134 29.4368 141.299 29.5592C135.101 30.6901 130.041 33.5777 124.984 36.4097C124.191 36.8684 123.403 37.3361 122.618 37.812C117.345 41.0557 112.811 45.0473 108.274 48.895C107.529 49.5287 106.783 50.1605 106.041 50.7753C100.855 55.2236 97.4865 60.924 94.738 66.8075C94.2872 67.8 93.8621 68.8059 93.4687 69.8244C90.9689 76.3854 91.9063 83.5888 94.5608 89.7088C95.0417 90.8089 95.5854 91.8821 96.1916 92.9208C99.2965 98.0861 104.589 100.387 109.236 102.559C110.35 103.057 111.469 103.536 112.587 104.004C117.921 106.414 124.021 105.175 128.88 103.664C130.087 103.307 131.269 102.94 132.451 102.584C137.506 101.101 141.542 97.5387 144.717 93.8957C145.587 92.9118 146.416 91.9167 147.235 90.9508C151.254 85.6761 152.451 79.8963 154.187 74.3716C154.563 73.0945 154.937 71.8175 155.33 70.5834C157.166 64.9182 156.471 58.9317 155.273 53.5915C154.97 52.2134 154.639 50.859 154.326 49.5265C151.095 39.0915 143.275 32.7336 136.585 25.7974C135.506 24.7454 134.425 23.7063 133.328 22.6628C127.945 17.401 120.768 14.3571 113.961 12.349C112.483 11.8864 111.017 11.4381 109.611 10.9467C104.357 9.11801 98.9709 7.69498 93.4458 6.81161C91.7958 6.55138 90.132 6.34358 88.4496 6.21268C83.1734 5.7786 77.7581 5.21037 72.2936 5.16612C70.5519 5.14985 68.802 5.1826 67.0476 5.28648C61.1988 5.60775 55.6089 7.01015 50.1376 8.41648C48.3987 8.87112 46.6537 9.3459 44.9146 9.82984C39.318 11.3611 33.9618 13.831 29.048 16.7322C27.4108 17.6848 25.8089 18.6698 24.2235 19.6036C20.1779 21.9768 17.1985 25.353 14.2156 28.3513C12.8736 29.7191 11.5336 31.055 10.1562 32.3583C8.17792 34.2246 6.43379 36.3157 4.8592 38.43C3.659 40.0259 2.54802 41.6552 1.37778 42.9951C1.32882 43.0509 1.29427 43.085 1.28347 43.0949C1.28647 43.101 1.2451 43.0972 1.48832 42.9718C1.54853 42.9438 1.62634 42.9126 1.72721 42.8858C1.86281 42.8497 2.05243 42.8206 2.27263 42.8391C2.70574 42.8488 3.27103 43.2014 3.44949 43.4743C3.76958 43.9419 3.69504 44.0195 3.71838 44.0535C3.70935 44.0659 3.72813 43.5986 3.78289 43.2448C3.88806 42.4897 4.06498 41.6428 4.25009 40.8148C4.62545 39.1491 5.06343 37.4575 5.49596 35.7528C5.8201 34.463 6.15845 33.1783 6.43842 31.7816C7.34195 27.3962 9.01463 22.916 10.5015 18.4C10.9435 17.0688 11.3791 15.7299 11.7822 14.3562C12.4593 12.0407 13.1438 9.7245 13.7961 7.37554C14.1836 5.97352 14.56 4.5629 14.885 3.10537C14.936 2.87109 14.9612 2.76068 15.0089 2.47188C15.0267 2.3419 15.049 2.25582 15.0581 1.95439C15.0577 1.87279 15.0613 1.836 15.0437 1.666C15.0258 1.53359 15.0056 1.36428 14.8865 1.09091C14.7729 0.834781 14.4881 0.373966 13.8891 0.131199C13.257 -0.12662 12.6487 0.0514602 12.3819 0.191608C12.0917 0.340112 11.9668 0.468068 11.8668 0.564135C11.7575 0.676223 11.7222 0.724626 11.6722 0.788919C11.4829 1.04967 11.4638 1.10674 11.3897 1.23504C11.3167 1.36919 11.2884 1.42634 11.2373 1.52845C11.1341 1.73726 11.0735 1.86863 10.9858 2.06079C10.6852 2.72493 10.412 3.38285 10.1486 4.02315C9.61871 5.31602 9.10733 6.61243 8.60228 7.89664C7.58858 10.472 6.59718 13.0509 5.56347 15.5751C5.37116 16.0416 5.17821 16.5026 4.98808 16.9318C3.22799 20.8614 3.03046 25.0389 2.21712 28.5288C2.10383 29.0037 1.97703 29.4637 1.83041 29.9028C0.805151 33.0564 -0.0138118 36.5711 0.893155 40.2836C1.0597 40.933 1.28682 41.5766 1.57882 42.1956C2.57028 44.9007 6.1565 47.0297 8.94399 46.7192C16.2717 46.0897 21.7186 42.5441 27.6655 42.3243C27.6888 42.3231 27.7122 42.322 27.7355 42.3209C31.8084 42.096 35.6116 41.2301 39.4583 40.8915C39.4801 40.8895 39.5018 40.8865 39.5235 40.8824L39.651 40.8714C39.7665 40.8422 39.8779 40.7959 40.0204 40.72C40.0971 40.68 40.1757 40.6349 40.2829 40.5651C40.3943 40.4774 40.5461 40.4441 40.8254 40.053C40.9611 39.8648 41.0537 39.4604 40.9772 39.2048C40.9133 38.9542 40.8078 38.8363 40.7358 38.7602C40.5842 38.6142 40.4907 38.5926 40.4031 38.5644C40.2342 38.5217 40.1073 38.5327 39.9821 38.5423C39.4974 38.5974 39.0629 38.6953 38.7498 38.5139C38.7376 38.5069 38.7257 38.4995 38.714 38.4917C37.6932 37.7982 36.8312 36.9055 35.958 36.0386C35.9565 36.0371 35.9545 36.0363 35.9524 36.0363C35.9504 36.0363 35.9484 36.0371 35.9469 36.0386C35.9454 36.0401 35.9446 36.042 35.9446 36.0441C35.9446 36.0462 35.9454 36.0482 35.9469 36.0496C36.8202 36.9166 37.6825 37.8098 38.7053 38.5047C38.717 38.5125 38.7285 38.5207 38.7397 38.5292C39.0157 38.7397 39.1999 39.1772 39.3173 39.6037C39.3415 39.7073 39.3635 39.8148 39.3317 39.8827C39.313 39.9111 39.2844 39.947 39.1858 39.8735C39.1393 39.833 39.056 39.7554 38.9995 39.5475C38.9314 39.3358 39.0115 38.9778 39.1216 38.8238C39.3475 38.5034 39.4153 38.5096 39.4449 38.4554C39.4721 38.4172 39.467 38.3961 39.4536 38.3781C39.4249 38.3431 39.3668 38.3245 39.3017 38.3203L39.4293 38.3093C39.4063 38.3068 39.3834 38.3055 39.3605 38.3052C35.3419 38.2532 31.3425 38.5135 27.5593 38.7166C27.5377 38.7177 27.5162 38.7187 27.4948 38.7197C20.485 39.0804 14.4179 42.7538 8.87365 43.1063C6.87266 43.1466 5.69092 42.4394 4.84813 40.6544C4.65868 40.2526 4.50785 39.8283 4.3941 39.385C3.751 36.8682 4.31223 33.8775 5.2541 31.044C5.44188 30.4797 5.59474 29.9187 5.72654 29.3646C6.62874 25.3155 6.82155 21.5841 8.27377 18.3888C8.48778 17.905 8.68732 17.4269 8.88656 16.9437C9.94778 14.3519 10.94 11.7865 11.9589 9.22189C12.4652 7.94641 12.978 6.66057 13.4982 5.40524C13.755 4.78706 14.025 4.14613 14.2891 3.56915C14.3644 3.40559 14.4167 3.29458 14.4889 3.14987C14.5342 3.04981 14.6616 2.84741 14.5669 2.98823C14.5427 3.01874 14.5259 3.04459 14.4445 3.12815C14.3682 3.20044 14.2646 3.31173 13.9932 3.45092C13.7453 3.58174 13.1534 3.75789 12.5351 3.50561C11.9492 3.26813 11.6754 2.8194 11.5704 2.58235C11.4598 2.32805 11.4458 2.1848 11.4318 2.08564C11.419 1.96152 11.4226 1.94727 11.422 1.90768C11.4266 1.79008 11.4245 1.86351 11.4166 1.90077C11.3949 2.03011 11.3738 2.13013 11.3335 2.31026C11.028 3.65739 10.6591 5.02477 10.2758 6.39436C9.62994 8.69275 8.93599 11.0001 8.24969 13.3145C7.86347 14.6128 7.43449 15.9194 6.99641 17.2319C5.51763 21.7233 3.82005 26.1599 2.79473 31.073C2.55758 32.2574 2.21699 33.5678 1.89628 34.838C1.46493 36.5365 1.02079 38.2464 0.624793 40.0006C0.428719 40.8813 0.237267 41.7737 0.101277 42.7392C0.0436512 43.2569 -0.0527713 43.6758 0.0359073 44.5546C0.0544249 44.6892 0.0812362 44.8332 0.129974 44.9971C0.18367 45.1754 0.286866 45.4597 0.511119 45.7498C0.760779 46.1172 1.42739 46.5262 1.96248 46.5427C2.23526 46.5657 2.48296 46.5306 2.67897 46.4784C2.82435 46.4398 2.94903 46.3913 3.05853 46.3403C3.83711 45.9187 3.90552 45.7117 4.16935 45.4487C5.57771 43.8278 6.67441 42.1944 7.83515 40.6571C9.34747 38.6275 10.9261 36.7396 12.7097 35.0529C14.1289 33.7078 15.5063 32.3321 16.8621 30.9502C19.8908 27.8856 22.7137 24.7837 26.1116 22.8205C27.7459 21.8626 29.3358 20.8895 30.9284 19.9658C35.7 17.1608 40.6561 14.8904 45.9205 13.451C47.6454 12.9728 49.373 12.5048 51.0875 12.0586C56.5 10.6709 61.8725 9.35069 67.2696 9.06637C68.9217 8.97043 70.5868 8.94041 72.2566 8.95727C77.5095 9.00326 82.7631 9.55454 88.155 10.0017C89.7168 10.1237 91.2863 10.3196 92.8522 10.5671C98.1009 11.4066 103.308 12.7795 108.355 14.5383C109.862 15.0646 111.358 15.5217 112.825 15.9815C119.568 17.9863 125.837 20.7031 130.695 25.4292C131.782 26.4642 132.852 27.4929 133.918 28.5319C140.519 35.2275 148.21 42.0971 150.669 50.3922C150.993 51.7471 151.321 53.0769 151.615 54.3995C152.783 59.5387 153.325 64.7395 151.805 69.4648C151.395 70.7637 151.022 72.0576 150.649 73.3368C149.013 78.7814 147.529 84.6335 144.452 88.5971C143.619 89.585 142.813 90.558 141.991 91.4946C138.976 94.973 135.554 97.9385 131.415 99.1815C130.219 99.5492 129.041 99.9217 127.868 100.275C123.014 101.789 118.226 102.722 113.918 100.809C112.817 100.353 111.723 99.8874 110.645 99.4063C106.096 97.3383 101.409 95.0483 99.1673 91.1837C98.6301 90.2635 98.146 89.3085 97.7176 88.3288C95.3335 82.8662 94.5973 76.4821 96.6853 71.0666C97.0524 70.1164 97.4524 69.1697 97.8775 68.2336C100.446 62.6871 103.735 57.2166 108.211 53.3944C108.974 52.7616 109.728 52.1212 110.477 51.4842C115.015 47.6282 119.488 43.7239 124.382 40.7221C125.148 40.2579 125.916 39.8026 126.688 39.357C131.538 36.6081 136.696 33.8403 141.793 32.9528C142.593 32.8373 143.399 32.7333 144.206 32.6417C149.4 32.1003 154.949 31.762 159.494 33.2179C160.211 33.4709 160.941 33.7304 161.659 33.9879C170.53 37.2952 180.007 40.4654 187.182 45.7504C187.7 46.1851 188.218 46.6093 188.736 47.0329C196.067 52.8346 202.661 59.2518 207.853 66.874C208.171 67.3345 208.49 67.8014 208.807 68.2697C213.889 75.8274 218.72 83.6483 222.324 91.8748C222.5 92.2846 222.678 92.7037 222.852 93.1178C226.077 101.041 229.292 109.416 229.456 117.565C229.451 117.936 229.448 118.3 229.445 118.662C229.617 129.167 229.498 139.12 226.163 148.867C226.085 149.118 226.004 149.377 225.923 149.632C223.046 158.758 219.498 167.681 214.745 175.905C214.665 176.044 214.585 176.181 214.506 176.318C212.634 179.544 210.763 182.717 208.826 185.901C204.094 193.67 199.185 201.212 193.253 208.088C193.247 208.095 193.241 208.103 193.235 208.11C192.274 209.265 191.195 210.346 190.043 211.306C189.466 211.785 188.869 212.235 188.27 212.616C187.973 212.805 187.669 212.979 187.402 213.102C187.268 213.165 187.141 213.214 187.067 213.235C187.031 213.246 187.008 213.248 187.036 213.244C187.067 213.246 187.148 213.214 187.424 213.299Z" fill="black"/>
</svg>
