<svg width="352" height="268" viewBox="0 0 352 268" fill="none" xmlns="http://www.w3.org/2000/svg">
<path d="M317.409 0.298238C317.148 0.0799349 316.81 -0.0254669 316.47 0.00521985C316.131 0.0359066 315.818 0.200168 315.599 0.461869C315.381 0.72357 315.276 1.06127 315.306 1.40069C315.337 1.7401 315.501 2.05342 315.763 2.27173C318.488 4.55292 321.074 7.07072 323.598 9.64168C323.614 9.65785 323.63 9.67406 323.645 9.6903C325.049 11.1259 326.269 13.0094 327.688 14.7196C327.71 14.7471 327.733 14.7748 327.755 14.8026C332.688 21.0542 336.536 28.3371 340.244 35.565C340.282 35.6402 340.32 35.7153 340.358 35.7904C341.184 37.4259 341.967 39.0796 342.683 40.7531C344.328 44.5574 345.544 48.5054 346.554 52.5708C346.584 52.6899 346.614 52.8096 346.644 52.9299C348.259 59.4568 348.938 66.2386 349.096 73.0082C349.1 73.1715 349.103 73.3376 349.106 73.4965C349.317 80.7884 348.59 88.0064 347.593 95.2816C347.565 95.4911 347.536 95.7027 347.506 95.9165C346.914 100.042 345.432 104.159 343.955 108.251C343.872 108.479 343.791 108.701 343.707 108.929C341.681 114.381 339.311 119.749 336.648 124.923C336.521 125.168 336.392 125.415 336.264 125.658C333.792 130.43 330.805 134.791 327.294 138.858C327.09 139.097 326.888 139.331 326.681 139.57C322.463 144.392 317.907 149.014 313.273 153.491C313.014 153.74 312.753 153.988 312.498 154.231C309.179 157.428 305.599 160.219 301.899 163.129C301.591 163.375 301.286 163.619 300.978 163.867C298.034 166.231 294.462 168.026 290.926 169.845C290.56 170.031 290.19 170.217 289.815 170.405C282.983 173.791 275.979 176.973 268.948 179.963C268.518 180.144 268.085 180.325 267.661 180.5C263.752 182.117 259.893 183.502 255.793 184.424C255.314 184.54 254.821 184.659 254.323 184.792C250.183 185.883 245.678 185.828 241.2 185.516C240.688 185.48 240.174 185.439 239.66 185.395C231.721 184.888 224.684 182.129 218.095 177.41C217.648 177.122 217.198 176.836 216.74 176.551C212.423 173.866 209.413 169.26 207.251 164.37C207.042 163.899 206.837 163.42 206.636 162.937C204.459 157.274 205.092 150.255 206.713 144.161C206.854 143.687 207.015 143.204 207.187 142.796C208.232 140.301 209.508 137.962 211.042 135.743C211.348 135.299 211.662 134.86 211.983 134.424C214.352 131.22 217.602 128.647 221.058 126.373C221.534 126.06 222.015 125.751 222.499 125.445C226.712 122.848 231.929 121.717 237.051 120.7C237.645 120.585 238.241 120.473 238.837 120.364C243.387 119.575 248.33 120.703 253.153 121.798C253.768 121.942 254.385 122.089 255.002 122.238C259.368 123.319 263.447 125.867 267.461 128.424C268.017 128.782 268.573 129.142 269.129 129.505C275.201 133.637 279.226 140.736 281.916 147.779C282.137 148.387 282.343 149 282.52 149.606C283.744 153.789 284.122 158.333 284.709 162.869C284.796 163.569 284.884 164.27 284.974 164.974C285.566 169.522 285.799 174.016 285.421 178.545C285.366 179.267 285.301 179.992 285.23 180.72C284.438 187.191 282.359 193.775 280.093 200.105C279.827 200.837 279.557 201.561 279.279 202.291C276.193 209.549 269.847 215.622 263.775 221.289C263.186 221.826 262.589 222.363 261.991 222.898C259.426 225.17 256.37 227.121 253.394 229.284C252.709 229.781 252.026 230.289 251.35 230.818C247.933 233.513 244.011 235.638 240.097 237.99C239.353 238.436 238.609 238.889 237.869 239.35C234.762 241.246 231.322 242.89 227.917 244.492C227.117 244.865 226.313 245.234 225.507 245.599C219.397 248.36 213.139 250.86 206.808 253.084C205.93 253.391 205.05 253.692 204.169 253.987C196.527 256.532 188.796 258.783 180.96 260.375C180.009 260.566 179.038 260.748 178.078 260.918C172.869 261.874 167.682 262.726 162.458 263.419C161.442 263.555 160.425 263.684 159.407 263.809C152.331 264.694 145.19 264.675 138.04 264.093C136.971 264.008 135.902 263.912 134.833 263.806C130.139 263.335 125.433 262.714 120.877 261.735C119.814 261.503 118.753 261.246 117.729 260.952C111.487 259.276 105.527 257.663 99.5082 255.623C98.4148 255.26 97.3227 254.891 96.2166 254.513C92.4199 253.222 88.8539 251.673 85.4513 249.609C84.4457 249.013 83.4267 248.387 82.3678 247.78C77.2129 244.793 72.0963 241.576 67.1377 238.241C66.1423 237.563 65.1137 236.855 64.2144 236.164C60.6479 233.377 57.3066 230.088 53.8135 226.932C52.8694 226.075 51.9163 225.223 50.9481 224.381C48.0715 221.857 45.5613 218.566 42.8063 215.482C41.9445 214.503 41.069 213.531 40.1755 212.568C37.7489 209.97 35.744 206.976 33.6636 203.883C32.9222 202.786 32.1659 201.681 31.3724 200.589C29.6273 198.195 28.0751 195.666 26.5192 193.056C25.8275 191.903 25.1314 190.735 24.3658 189.568C22.1064 186.134 20.0433 182.583 18.1397 178.925C17.5098 177.717 16.8953 176.497 16.2831 175.269C13.7205 170.142 11.1985 165.049 8.54619 159.942C8.23011 159.338 7.92085 158.713 7.59248 158.107C7.23259 157.443 6.86308 156.777 6.46534 156.11C6.29627 155.765 5.67174 155.251 5.10174 155.208C4.54842 155.147 4.26455 155.279 4.06548 155.355C3.67758 155.531 3.54457 155.664 3.39863 155.784C3.13295 156.02 2.97778 156.213 2.82744 156.41C2.53631 156.804 2.31226 157.18 2.11355 157.686C0.914921 161.357 1.13654 164.484 0.937931 167.661C0.878997 169.054 0.810126 170.43 0.678434 171.768C0.409461 174.5 0.190096 177.235 0.0799614 179.997C0.0214475 181.449 -0.00190702 182.915 0.000112733 184.355C0.000221882 184.593 0.000609878 184.748 0.00277974 184.976C0.00401621 185.092 0.00519513 185.176 0.00770761 185.286C0.00930545 185.355 0.0111733 185.416 0.0135976 185.474C0.0171817 185.524 0.0136989 185.593 0.0409289 185.8C0.0451439 185.829 0.0504355 185.862 0.0593467 185.907C0.0666285 185.94 0.0600058 185.918 0.0849628 186.016C0.101874 186.078 0.12271 186.154 0.178234 186.282C0.242117 186.409 0.305656 186.6 0.634054 186.901C0.909333 187.217 1.88839 187.508 2.47879 187.2C3.0558 186.934 3.19343 186.645 3.30057 186.496C3.60029 185.919 3.49989 185.966 3.52397 185.947C3.5277 185.931 3.53083 185.916 3.5336 185.903C3.53912 185.876 3.54321 185.854 3.54669 185.834C3.56009 185.754 3.56594 185.703 3.57207 185.649C3.58088 185.567 3.58419 185.528 3.58977 185.463C3.6016 185.318 3.60584 185.253 3.61369 185.136C3.62816 184.916 3.63902 184.726 3.65021 184.524C3.69352 183.731 3.73005 182.94 3.76655 182.148C3.83838 180.577 3.90691 179.003 3.97808 177.431C4.12433 174.291 4.25599 171.147 4.48709 168.058C4.50545 167.827 4.52877 167.557 4.54981 167.343C4.86927 164.049 5.14605 160.788 5.74287 157.684C5.79288 157.429 5.83976 157.171 5.88803 156.92C5.82947 157.172 5.655 157.354 5.59851 157.389C5.53502 157.432 5.55726 157.403 5.62076 157.38C5.71178 157.344 5.87547 157.302 6.05023 157.277C7.75621 156.953 10.2365 158.904 12.6867 160.536C12.9029 160.679 13.1218 160.822 13.3444 160.964C16.8844 163.238 20.642 165.331 24.4254 167.117C24.6749 167.238 24.9248 167.359 25.1717 167.479C26.9613 168.351 28.7207 169.229 30.3894 170.194C30.8271 170.447 31.258 170.707 31.6797 170.974C31.9164 171.124 32.1484 171.279 32.3759 171.437C33.066 171.91 33.755 172.351 34.5876 172.735C34.9408 172.886 35.2328 173.039 35.8774 173.166C36.0572 173.193 36.1817 173.222 36.5229 173.213C36.6449 173.205 36.9557 173.193 37.3329 173.016C37.5876 172.898 37.9168 172.66 38.1369 172.304C38.3707 171.939 38.444 171.504 38.4253 171.197C38.3948 170.713 38.2448 170.456 38.18 170.322C38.0947 170.162 38.0271 170.067 37.9688 169.987C37.8383 169.812 37.7568 169.724 37.6605 169.62C37.3123 169.255 37.0238 169.016 36.7286 168.771C36.1427 168.29 35.5754 167.87 35.0019 167.454C33.8584 166.628 32.7042 165.845 31.5595 165.082C31.5223 165.057 31.4851 165.032 31.448 165.007C29.2925 163.573 27.1491 161.941 24.6427 160.578C24.6139 160.562 24.5852 160.547 24.5564 160.532C22.2308 159.296 19.8744 158.5 17.7054 157.592C17.6891 157.585 17.6728 157.578 17.6564 157.571C14.9393 156.462 12.2468 155.983 9.73858 155.349C9.73708 155.348 9.73558 155.348 9.73408 155.348C7.86328 154.851 5.47245 155.138 4.93481 155.053L5.41358 155.528C5.40723 155.52 5.40088 155.512 5.39452 155.504C4.70212 154.625 3.13582 154.036 2.46377 153.041C2.46315 153.04 2.4613 153.037 2.45946 153.034C2.15684 152.51 1.96945 151.93 1.76663 151.36C1.76646 151.36 1.7661 151.36 1.76564 151.359C1.76517 151.359 1.76465 151.359 1.76417 151.359C1.76368 151.359 1.76329 151.36 1.76305 151.36C1.76282 151.361 1.76277 151.361 1.76292 151.362C1.94146 151.94 2.14396 152.511 2.38597 153.071C2.38745 153.074 2.38892 153.077 2.39039 153.081C2.9429 154.175 2.45157 155.755 3.00355 156.95C3.00864 156.961 3.01373 156.972 3.01883 156.983L3.4976 157.458C4.91695 158.273 5.75127 158.193 6.60133 158.39C7.43093 158.533 8.16764 158.673 8.85748 158.848C8.85854 158.849 8.85959 158.849 8.86064 158.849C11.4953 159.513 14.0618 160.001 16.268 160.917C16.2812 160.923 16.2944 160.928 16.3076 160.934C18.6168 161.9 20.8725 162.687 22.8384 163.742C22.8627 163.755 22.8869 163.768 22.9111 163.781C25.0688 164.952 27.1649 166.535 29.4179 168.04C29.4568 168.066 29.4958 168.092 29.5349 168.119C30.6661 168.872 31.795 169.631 32.8807 170.405C33.4215 170.791 33.9563 171.184 34.4387 171.573C34.6732 171.763 34.9137 171.972 35.0344 172.098C35.0626 172.127 35.081 172.151 35.0625 172.127C35.0531 172.112 35.0342 172.09 34.9902 172.008C34.9609 171.939 34.851 171.782 34.8224 171.369C34.806 171.111 34.8696 170.718 35.0814 170.388C35.2805 170.066 35.5762 169.855 35.7868 169.758C36.1047 169.612 36.2982 169.617 36.3535 169.611C36.5118 169.608 36.4931 169.618 36.4784 169.614C36.5311 169.631 36.2625 169.549 36.0654 169.456C35.519 169.211 34.8995 168.875 34.3267 168.511C34.0632 168.342 33.7991 168.177 33.5356 168.013C33.0661 167.722 32.5939 167.443 32.1198 167.174C30.3141 166.151 28.4816 165.256 26.6699 164.384C26.4178 164.263 26.1651 164.142 25.9151 164.022C22.1644 162.268 18.6395 160.327 15.1678 158.103C14.9662 157.974 14.7647 157.843 14.5625 157.709C12.1703 156.321 9.93089 153.59 5.54732 153.914C5.18728 153.969 4.8195 154.048 4.40414 154.205C3.8832 154.424 2.88552 154.815 2.52181 156.161C2.45018 156.442 2.38309 156.726 2.32677 157.006C1.66301 160.39 1.36825 163.724 1.04469 166.997C1.02038 167.24 0.995104 167.532 0.975518 167.777C0.733516 170.998 0.603662 174.113 0.455032 177.271C0.383127 178.846 0.313999 180.422 0.242021 181.986C0.205527 182.773 0.168797 183.562 0.126714 184.329C0.115927 184.523 0.105411 184.706 0.0924118 184.903C0.0855576 185.005 0.081432 185.066 0.0729923 185.168C0.0693793 185.211 0.0667726 185.239 0.0642696 185.262C0.0630824 185.274 0.0619581 185.276 0.0687408 185.235C0.0705641 185.224 0.0730239 185.211 0.0769307 185.192C0.0788932 185.182 0.0812294 185.171 0.0841621 185.158C0.109124 185.135 0.00222121 185.213 0.296176 184.644C0.401889 184.497 0.53812 184.21 1.11374 183.945C1.70277 183.637 2.68046 183.928 2.9544 184.242C3.28146 184.543 3.34368 184.732 3.40627 184.856C3.4605 184.98 3.48006 185.053 3.49572 185.11C3.51849 185.2 3.51222 185.179 3.51859 185.208C3.52616 185.245 3.53014 185.271 3.53306 185.291C3.54957 185.429 3.53855 185.337 3.53965 185.326C3.53847 185.298 3.53712 185.256 3.53592 185.204C3.53398 185.119 3.5329 185.044 3.53182 184.94C3.52988 184.733 3.5295 184.584 3.52943 184.355C3.52777 182.94 3.55034 181.543 3.60686 180.137C3.71319 177.468 3.91573 174.793 4.17133 172.107C4.3096 170.65 4.37565 169.218 4.43424 167.806C4.58721 164.675 4.55633 161.316 5.37665 158.932C5.41349 158.831 5.52037 158.638 5.61875 158.509C5.66405 158.447 5.72208 158.389 5.70064 158.41C5.67809 158.423 5.67329 158.457 5.43718 158.566C5.31233 158.611 5.10937 158.719 4.6378 158.669C4.14985 158.635 3.59612 158.176 3.46783 157.902C3.82649 158.501 4.17656 159.131 4.5241 159.771C4.84119 160.355 5.17751 160.949 5.48992 161.544C8.12113 166.582 10.6686 171.678 13.2333 176.792C13.8496 178.025 14.4758 179.266 15.1193 180.5C17.0654 184.241 19.1905 187.907 21.5123 191.442C22.2196 192.521 22.8986 193.659 23.5881 194.81C25.1423 197.421 26.7677 200.078 28.605 202.599C29.3614 203.641 30.0945 204.712 30.8295 205.799C32.8879 208.857 35.0291 212.055 37.6812 214.886C38.5538 215.824 39.4094 216.771 40.2553 217.73C42.9679 220.751 45.4316 224.04 48.7204 226.945C49.6654 227.765 50.6005 228.601 51.5322 229.446C54.9872 232.561 58.3263 235.858 62.1406 238.841C63.1775 239.636 64.2096 240.342 65.2359 241.042C70.299 244.446 75.3968 247.667 80.6712 250.735C81.6726 251.31 82.6741 251.927 83.7113 252.543C87.2645 254.709 91.19 256.422 95.1055 257.752C96.2203 258.135 97.322 258.508 98.4263 258.876C104.455 260.929 110.745 262.641 116.777 264.261C117.898 264.584 119.025 264.857 120.143 265.101C124.923 266.126 129.698 266.751 134.495 267.234C135.584 267.342 136.674 267.44 137.767 267.527C145.065 268.123 152.502 268.135 159.824 267.21C160.854 267.083 161.883 266.951 162.911 266.813C168.189 266.109 173.476 265.236 178.677 264.278C179.646 264.107 180.657 263.917 181.633 263.72C189.679 262.081 197.509 259.797 205.249 257.217C206.147 256.916 207.042 256.609 207.934 256.296C214.37 254.032 220.692 251.5 226.908 248.684C227.723 248.313 228.538 247.938 229.35 247.558C232.821 245.918 236.258 244.265 239.642 242.188C240.362 241.737 241.087 241.292 241.817 240.853C245.638 238.543 249.706 236.347 253.4 233.434C254.032 232.938 254.683 232.452 255.344 231.971C258.229 229.862 261.324 227.908 264.198 225.365C264.801 224.824 265.408 224.276 266.006 223.727C272.209 217.851 278.649 211.899 282.269 203.425C282.55 202.678 282.823 201.938 283.092 201.189C285.384 194.67 287.477 188.114 288.329 181.017C288.399 180.273 288.464 179.526 288.519 178.776C288.9 174.05 288.636 169.235 288.01 164.581C287.918 163.882 287.829 163.185 287.74 162.488C287.133 157.983 286.746 153.36 285.386 148.761C285.181 148.074 284.954 147.411 284.713 146.756C281.772 139.267 277.726 131.903 270.691 127.095C270.13 126.733 269.568 126.372 269.003 126.012C264.91 123.448 260.681 120.768 255.649 119.528C255.027 119.381 254.404 119.235 253.78 119.092C248.871 118.02 243.766 116.764 238.341 117.679C237.739 117.791 237.136 117.905 236.532 118.022C231.314 119.081 225.921 120.169 221.047 123.148C220.552 123.461 220.057 123.779 219.564 124.103C215.983 126.464 212.462 129.186 209.774 132.787C209.434 133.245 209.1 133.708 208.775 134.178C207.141 136.521 205.737 139.08 204.623 141.702C204.382 142.268 204.199 142.817 204.034 143.355C202.258 150.068 201.362 157.096 203.877 164.074C204.079 164.572 204.288 165.076 204.504 165.574C206.747 170.751 209.914 175.976 215.059 179.24C215.498 179.516 215.933 179.795 216.371 180.079C222.801 184.802 231.191 188.174 239.385 188.613C239.912 188.659 240.441 188.701 240.97 188.738C245.6 189.054 250.403 189.133 255.149 187.879C255.602 187.758 256.07 187.643 256.545 187.527C260.758 186.576 264.914 185.084 268.876 183.437C269.307 183.259 269.747 183.075 270.182 182.891C277.298 179.858 284.297 176.677 291.232 173.233C291.612 173.042 291.987 172.853 292.359 172.663C295.948 170.805 299.596 168.943 302.919 166.264C303.22 166.019 303.518 165.778 303.821 165.535C307.435 162.679 311.206 159.726 314.603 156.447C314.863 156.2 315.127 155.947 315.39 155.695C320.086 151.155 324.659 146.518 328.986 141.571C329.199 141.326 329.406 141.085 329.616 140.838C333.225 136.664 336.406 131.97 338.929 127.059C339.061 126.809 339.192 126.555 339.322 126.304C342.041 120.991 344.435 115.554 346.5 109.954C346.584 109.724 346.666 109.499 346.75 109.268C348.232 105.11 349.73 100.893 350.379 96.3079C350.408 96.0923 350.437 95.8789 350.465 95.6676C351.447 88.3614 352.193 80.88 351.956 73.44C351.952 73.2775 351.948 73.1075 351.944 72.9404C351.762 66.0085 351.032 59.0512 349.329 52.256C349.298 52.134 349.268 52.0125 349.237 51.8915C348.2 47.7685 346.912 43.6179 345.194 39.6748C344.446 37.9399 343.635 36.2363 342.785 34.562C342.747 34.4863 342.708 34.4104 342.669 34.3346C338.893 27.0263 335.061 19.7255 329.83 13.111C329.808 13.084 329.786 13.0571 329.764 13.0304C328.378 11.3744 327.141 9.60357 325.482 7.89292C325.466 7.87646 325.45 7.86003 325.434 7.84362C322.871 5.23373 320.249 2.67659 317.409 0.298238Z" fill="black"/>
</svg>
